<mxfile>
    <diagram id="Dq29jKt6Rsw7JX-ppJJJ" name="Page-1">
        <mxGraphModel dx="1709" dy="903" grid="1" gridSize="10" guides="1" tooltips="1" connect="1" arrows="1" fold="1" page="0" pageScale="1" pageWidth="827" pageHeight="1169" math="0" shadow="0">
            <root>
                <mxCell id="0"/>
                <mxCell id="1" parent="0"/>
                <mxCell id="2" value="Nginx" style="rounded=0;whiteSpace=wrap;html=1;" vertex="1" parent="1">
                    <mxGeometry x="-10" y="370" width="150" height="60" as="geometry"/>
                </mxCell>
                <mxCell id="3" value="ApiApplicationServer" style="rounded=0;whiteSpace=wrap;html=1;" vertex="1" parent="1">
                    <mxGeometry x="480" y="200" width="150" height="60" as="geometry"/>
                </mxCell>
                <mxCell id="4" value="MasterServer" style="rounded=0;whiteSpace=wrap;html=1;" vertex="1" parent="1">
                    <mxGeometry x="350" y="470" width="150" height="60" as="geometry"/>
                </mxCell>
                <mxCell id="5" value="WorkerServer" style="rounded=0;whiteSpace=wrap;html=1;" vertex="1" parent="1">
                    <mxGeometry x="760" y="400" width="150" height="60" as="geometry"/>
                </mxCell>
                <mxCell id="6" value="AlertServer" style="rounded=0;whiteSpace=wrap;html=1;" vertex="1" parent="1">
                    <mxGeometry x="540" y="90" width="150" height="60" as="geometry"/>
                </mxCell>
                <mxCell id="7" value="LoggerServer" style="rounded=0;whiteSpace=wrap;html=1;" vertex="1" parent="1">
                    <mxGeometry x="850" y="240" width="150" height="60" as="geometry"/>
                </mxCell>
                <mxCell id="8" value="Zookeeper" style="rounded=0;whiteSpace=wrap;html=1;" vertex="1" parent="1">
                    <mxGeometry x="110" y="210" width="150" height="60" as="geometry"/>
                </mxCell>
                <mxCell id="9" value="DB" style="rounded=0;whiteSpace=wrap;html=1;" vertex="1" parent="1">
                    <mxGeometry x="200" y="350" width="150" height="60" as="geometry"/>
                </mxCell>
            </root>
        </mxGraphModel>
    </diagram>
</mxfile>